<?xml version="1.0" encoding="utf-8"?>
<!-- Generator: Adobe Illustrator 24.3.0, SVG Export Plug-In . SVG Version: 6.00 Build 0)  -->
<svg version="1.1" id="Layer_1" xmlns="http://www.w3.org/2000/svg" xmlns:xlink="http://www.w3.org/1999/xlink" x="0px" y="0px"
	 viewBox="0 0 10 10" style="enable-background:new 0 0 10 10;" xml:space="preserve">
<style type="text/css">
	.st0{fill:#00C417;}
</style>
<path class="st0" d="M26.5,8.7C24.8,2.3,18-1.2,11.9,1.3c-4,1.6-6.7,5.6-6.7,9.8c0,1.6,0.3,3.2,0.8,4.7c0.9,2.5,2.2,4.8,3.6,7.1
	c1.7,2.7,3.7,5.2,5.5,7.9c0.2,0.3,0.4,0.5,0.7,0.7c0.2,0,0.3,0,0.5,0c0.3-0.1,0.5-0.4,0.7-0.7c0.4-0.5,0.7-1.1,1.1-1.6
	c1.8-2.6,3.7-5.1,5.3-7.8c1.2-2,2.3-4.1,3-6.4C26.9,12.9,27.1,10.8,26.5,8.7z"/>
<g>
	<path d="M20.9,16.5c0,0.7-0.6,1.3-1.3,1.3h-7.8c-0.1,0-0.2,0.1-0.2,0.2v0.7c0,0.1-0.1,0.2-0.2,0.2h0c-0.1,0-0.1,0-0.1,0L11,18.7
		l-2.6-2.1l-0.2-0.2c-0.1-0.1-0.1-0.3,0-0.4L8.4,16l2.6-2.1l0.2-0.2c0,0,0.1-0.1,0.1-0.1c0.1,0,0.2,0.1,0.2,0.2v0.7
		c0,0.1,0.1,0.2,0.2,0.2h7.9c0.1,0,0.2,0.1,0.2,0.2v0.1c0,0.1-0.1,0.2-0.2,0.2h-8.4c-0.1,0-0.2-0.1-0.2-0.2v-0.6l-1.9,1.5
		c-0.1,0.1-0.1,0.3,0,0.4L11,18v-0.6c0-0.1,0.1-0.2,0.2-0.2h8.3c0.4,0,0.8-0.3,0.8-0.8v-5.3c0-0.1,0.1-0.2,0.2-0.2h0.1
		c0.1,0,0.2,0.1,0.2,0.2V16.5z"/>
	<polygon points="17.6,11.7 17.6,12.3 16.9,12.3 16.9,13.7 18,13.7 18,14.2 16.3,14.2 16.3,9.8 18,9.8 18,10.4 16.9,10.4 16.9,11.7 
			"/>
	<polygon points="18.4,9.8 18.9,9.8 19.3,11 19.6,9.8 20.1,9.8 19.5,12 20.1,14.2 19.6,14.2 19.3,13 18.9,14.2 18.4,14.2 19,12 	"/>
	<path d="M23.8,7.9l-0.2,0.2L21,10.2l-0.2,0.2c0,0-0.1,0.1-0.1,0.1c-0.1,0-0.2-0.1-0.2-0.2V9.4c0-0.1-0.1-0.2-0.2-0.2h-7.9
		c-0.1,0-0.2-0.1-0.2-0.2V8.9c0-0.1,0.1-0.2,0.2-0.2h8.4c0.1,0,0.2,0.1,0.2,0.2v0.6l1.9-1.5c0.1-0.1,0.1-0.3,0-0.4L21,6v0.6
		c0,0.1-0.1,0.2-0.2,0.2h-8.3c-0.4,0-0.8,0.3-0.8,0.8v5.3c0,0.1-0.1,0.2-0.2,0.2h-0.1c-0.1,0-0.2-0.1-0.2-0.2V7.5
		c0-0.7,0.6-1.3,1.3-1.3h7.8c0.1,0,0.2-0.1,0.2-0.2V5.3c0-0.1,0.1-0.2,0.2-0.2h0c0.1,0,0.1,0,0.1,0L21,5.3l2.6,2.1l0.2,0.2
		C23.9,7.6,23.9,7.8,23.8,7.9z"/>
	<path d="M15.5,9.8h-1.3v4.4h1.4l0.3-0.3v-3.9L15.5,9.8z M15.3,13.7h-0.5v-3.3h0.5V13.7z"/>
	<path d="M13.2,9.8h-0.5l-0.6,4.4h0.6l0.1-0.5h0.5l0.1,0.5h0.6L13.2,9.8z M12.8,13.2l0.2-2.7l0.2,2.7H12.8z"/>
</g>
</svg>
